# xmcd CD database file
#
# Track frame offsets:
#	150
#	19507
#	36802
#	50720
#	74482
#	89962
#	112747
#	128605
#	140977
#	167460
#	200642
#	210997
#
# Disc length: 3036 seconds
#
# Revision: 0
# Processed by: cddbd v1.5PL3 Copyright (c) Steve Scherf et al.
# Submitted via: CDex 1.50
#
DISCID=ad0bda0c
DTITLE=Cymbals - Love You
DYEAR=2003
DGENRE=Pop
TTITLE0=E.G.G.
TTITLE1=Love Thing
TTITLE2=アメリカの女王
TTITLE3=Homeward Bound
TTITLE4=世界をのぞむ家
TTITLE5=怒れる小さな茶色い犬
TTITLE6=設計図
TTITLE7=Sailing Song
TTITLE8=Bonjour Bonsoir
TTITLE9=時間を名乗る天使
TTITLE10=Family Bond and One Dog
TTITLE11=君とぼく
EXTD=YEAR: 2003
EXTT0=
EXTT1=
EXTT2=
EXTT3=
EXTT4=
EXTT5=
EXTT6=
EXTT7=
EXTT8=
EXTT9=
EXTT10=
EXTT11=
PLAYORDER=
